<svg xmlns="http://www.w3.org/2000/svg" viewBox="0 0 128 128" role="img" aria-label="Sapo">
  <defs><linearGradient id="b" x2="1" y2="1"><stop stop-color="#d8f4b8"/><stop offset="1" stop-color="#69c99a"/></linearGradient></defs>
  <rect width="128" height="128" rx="34" fill="url(#b)"/><circle cx="39" cy="47" r="21" fill="#35a96f"/><circle cx="89" cy="47" r="21" fill="#35a96f"/><circle cx="39" cy="47" r="12" fill="#f5fff2"/><circle cx="89" cy="47" r="12" fill="#f5fff2"/><circle cx="40" cy="48" r="5" fill="#092630"/><circle cx="88" cy="48" r="5" fill="#092630"/>
  <path d="M21 75c0-25 19-41 43-41s43 16 43 41c0 27-18 43-43 43S21 102 21 75Z" fill="#42b978"/><ellipse cx="64" cy="88" rx="34" ry="22" fill="#79d59a"/><circle cx="50" cy="77" r="2.5" fill="#188458"/><circle cx="78" cy="77" r="2.5" fill="#188458"/><path d="M43 92c12 10 30 10 42 0" fill="none" stroke="#126646" stroke-width="4" stroke-linecap="round"/><path d="M62 98c5 0 9-1 13-4-2 10-13 13-19 5Z" fill="#ef7890"/>
</svg>
