<svg xmlns="http://www.w3.org/2000/svg" viewBox="0 0 1200 360" role="img" aria-labelledby="title desc">
  <title id="title">Rivulus — Projetos e equipes em movimento.</title>
  <desc id="desc">Emblema de um rio sinuoso em turquesa, nome Rivulus e correntes azuis entrelaçadas sobre fundo azul-petróleo.</desc>
  <defs>
    <linearGradient id="bg" x2="1" y2="1"><stop stop-color="#123B47"/><stop offset=".55" stop-color="#092630"/><stop offset="1" stop-color="#071B24"/></linearGradient>
    <linearGradient id="river" x1="16" y1="14" x2="112" y2="114" gradientUnits="userSpaceOnUse"><stop stop-color="#BCFFF0"/><stop offset=".42" stop-color="#52E3D2"/><stop offset="1" stop-color="#2AA7D6"/></linearGradient>
    <linearGradient id="flow" x1="660" y1="360" x2="1180" y2="10" gradientUnits="userSpaceOnUse"><stop stop-color="#2AA7D6" stop-opacity=".05"/><stop offset=".48" stop-color="#2AA7D6" stop-opacity=".65"/><stop offset="1" stop-color="#8CF3D7"/></linearGradient>
    <linearGradient id="base" x2="1" y2="1"><stop stop-color="#164653"/><stop offset="1" stop-color="#071B24"/></linearGradient>
    <linearGradient id="rim" x2="1" y2="1"><stop stop-color="#86EBDD" stop-opacity=".6"/><stop offset="1" stop-color="#2AA7D6" stop-opacity=".12"/></linearGradient>
    <pattern id="grid" width="28" height="28" patternUnits="userSpaceOnUse"><circle cx="1" cy="1" r="1" fill="#96DED6" opacity=".09"/></pattern>
    <clipPath id="bounds"><rect width="1200" height="360" rx="24"/></clipPath>
  </defs>
  <g clip-path="url(#bounds)">
    <path fill="url(#bg)" d="M0 0h1200v360H0z"/>
    <path fill="url(#grid)" d="M0 0h1200v360H0z"/>
    <g fill="none" stroke="url(#flow)">
      <path d="M690 405c-80-142 240-119 195-247S998-8 1217-44" stroke-width="52" opacity=".13"/>
      <path d="M755 406c-80-142 240-119 195-247S1063-8 1282-44" stroke-width="29" opacity=".2"/>
      <path d="M690 405c-80-142 240-119 195-247S998-8 1217-44" stroke-width="2"/>
      <path d="M715 405c-80-142 240-119 195-247S1023-8 1242-44" stroke-width="1" opacity=".5"/>
      <path d="M755 406c-80-142 240-119 195-247S1063-8 1282-44" stroke-width="3"/>
      <path d="M794 406c-80-142 240-119 195-247S1102-8 1321-44" stroke-width="1" opacity=".4"/>
    </g>
    <g fill="#B6FFEA"><circle cx="888" cy="170" r="4"/><circle cx="921" cy="95" r="3"/><circle cx="801" cy="307" r="3"/></g>
    <g transform="translate(74 106) scale(1.12)">
      <rect x="2" y="6" width="124" height="124" rx="35" fill="#020F18" opacity=".4"/>
      <rect x="2" y="2" width="124" height="124" rx="35" fill="url(#base)" stroke="url(#rim)" stroke-width="2"/>
      <rect x="9" y="9" width="110" height="110" rx="28" fill="none" stroke="#8AF5E4" stroke-opacity=".09"/>
      <g fill="none" stroke="#8CE8DD" stroke-linecap="round">
        <path d="M56 22C17 41 23 63 47 75C56 79 53 85 27 98" stroke-opacity=".28" stroke-width="2"/>
        <path d="M43 23C11 42 14 67 35 79" stroke-opacity=".1" stroke-width="1.5"/>
        <path d="M103 33C79 43 87 47 96 54C120 72 118 94 84 109" stroke-opacity=".28" stroke-width="2"/>
      </g>
      <path transform="translate(0 3)" d="M72 20C24 39 31 56 58 66C80 75 75 87 32 108H66C111 87 108 67 81 55C59 45 55 36 91 20Z" fill="#020F18" opacity=".5"/>
      <path d="M72 20C24 39 31 56 58 66C80 75 75 87 32 108H66C111 87 108 67 81 55C59 45 55 36 91 20Z" fill="url(#river)"/>
      <path d="M72 23C31 40 35 54 60 63" fill="none" stroke="#E0FFF5" stroke-opacity=".65" stroke-width="2" stroke-linecap="round"/>
      <path d="M75 57C105 72 100 86 65 105" fill="none" stroke="#08758F" stroke-opacity=".45" stroke-width="2" stroke-linecap="round"/>
      <path d="M80 24C42 41 46 50 70 61C96 74 87 89 49 106" fill="none" stroke="#D5FFF5" stroke-opacity=".3" stroke-width="1.5" stroke-linecap="round"/>
    </g>
    <g font-family="Inter, Segoe UI, Arial, sans-serif">
      <text x="250" y="115" fill="#86DCCD" font-size="12" font-weight="600" letter-spacing="4">DO PLANO AO FLUXO</text>
      <text x="245" y="193" fill="#F0FCFA" font-size="76" font-weight="750" letter-spacing="-3">Rivulus</text>
      <text x="250" y="235" fill="#BAD4D8" font-size="21">Projetos e equipes em movimento.</text>
    </g>
    <path d="M76 302h36" stroke="#52E3D2" stroke-width="3" stroke-linecap="round"/>
    <path d="M122 302h12" stroke="#2AA7D6" stroke-width="3" stroke-linecap="round"/>
  </g>
  <rect x=".5" y=".5" width="1199" height="359" rx="24" fill="none" stroke="#72B9BA" stroke-opacity=".2"/>
</svg>
